<svg xmlns="http://www.w3.org/2000/svg" viewBox="0 0 577.77 769.5"><defs><style>.cls-1,.cls-3{fill:none;}.cls-1,.cls-2{stroke:#000;stroke-miterlimit:10;}.cls-1{stroke-width:4px;}.cls-2{fill:#fff;stroke-width:3px;}</style></defs><title>Risorsa 8</title><g id="Livello_2" data-name="Livello 2"><g id="Livello_1-2" data-name="Livello 1"><polygon class="cls-1" points="352.61 706.5 365.75 737 378.88 767.5 352.61 767.5 326.33 767.5 339.47 737 352.61 706.5"/><circle cx="260.05" cy="366.82" r="247.16"/><circle class="cls-2" cx="317.75" cy="248.66" r="247.16"/><path d="M13,735.91,43,769.4H36.66L9.84,739.49l-5.17,5.87v24H0V701.73H4.67V738.1l32-36.37h6.27Z"/><path d="M98.32,735.62A33.78,33.78,0,1,1,132.1,769.4,33.76,33.76,0,0,1,98.32,735.62Zm4.67,0A29.12,29.12,0,1,0,132.1,706.5,29.08,29.08,0,0,0,103,735.62Z"/><path d="M234.89,701.83a33.79,33.79,0,0,1,0,67.57H221.38V701.73h13.51ZM264,735.62a29.08,29.08,0,0,0-29.11-29.12h-8.84v58.23h8.84A29.08,29.08,0,0,0,264,735.62Z"/><path d="M470.88,769.5H434.82V701.83h4.67v62.9h31.3Z"/><path d="M577.77,701.83l-23.46,42.33V769.4h-4.67V745l-23.46-43.22h5.38L551.83,739l20.67-37.27Z"/><line class="cls-3" x1="336.88" y1="750.5" x2="334.88" y2="754.5"/></g></g></svg>