<svg xmlns="http://www.w3.org/2000/svg" viewBox="0 0 586.36 724.38"><defs><style>.cls-1,.cls-3{fill:none;}.cls-1,.cls-2,.cls-4{stroke:#000;stroke-miterlimit:10;}.cls-1,.cls-4{stroke-width:5px;}.cls-4{fill:#fff;}</style></defs><title>logo_1</title><g id="Livello_2" data-name="Livello 2"><g id="Livello_1-2" data-name="Livello 1"><polygon class="cls-1" points="355.65 660.88 368.79 691.38 381.93 721.88 355.65 721.88 329.38 721.88 342.51 691.38 355.65 660.88"/><path class="cls-2" d="M16.06,690.29l30,33.49H39.71L12.88,693.87l-5.17,5.86v24H3V656.11H7.71v36.37l32-36.37H46Z"/><path class="cls-2" d="M101.37,690a33.78,33.78,0,1,1,33.78,33.79A33.75,33.75,0,0,1,101.37,690Zm4.67,0a29.11,29.11,0,1,0,29.11-29.12A29.09,29.09,0,0,0,106,690Z"/><path class="cls-2" d="M237.93,656.21a33.79,33.79,0,0,1,0,67.57H224.42V656.11h13.51ZM267,690a29.09,29.09,0,0,0-29.11-29.12h-8.84v58.24h8.84A29.09,29.09,0,0,0,267,690Z"/><path class="cls-2" d="M473.93,723.88H437.86V656.21h4.67v62.9h31.3Z"/><path class="cls-2" d="M580.81,656.21l-23.45,42.33v25.24h-4.67V699.33l-23.46-43.22h5.37l20.28,37.26,20.67-37.26Z"/><line class="cls-3" x1="339.93" y1="704.88" x2="337.93" y2="708.88"/><circle cx="247.16" cy="341.19" r="247.16"/><circle class="cls-4" cx="336.7" cy="249.66" r="247.16"/></g></g></svg>