<svg id="Livello_1" data-name="Livello 1" xmlns="http://www.w3.org/2000/svg" viewBox="0 0 586.36 724.38"><defs><style>.cls-1,.cls-3{fill:none;}.cls-1,.cls-2,.cls-4{stroke:#000;stroke-miterlimit:10;}.cls-1,.cls-4{stroke-width:5px;}.cls-4{fill:#fff;}</style></defs><title>LOGO KODALY SIMMETRICO bold</title><polygon class="cls-1" points="355.65 660.88 368.79 691.38 381.93 721.88 355.65 721.88 329.38 721.88 342.51 691.38 355.65 660.88"/><path class="cls-2" d="M144.13,747.1l30,33.49h-6.36L141,750.68l-5.17,5.86v24.05h-4.66V712.92h4.66v36.37l32-36.37H174Z" transform="translate(-128.07 -56.81)"/><path class="cls-2" d="M229.44,746.8a33.78,33.78,0,1,1,33.78,33.79A33.75,33.75,0,0,1,229.44,746.8Zm4.67,0a29.11,29.11,0,1,0,29.11-29.11A29.09,29.09,0,0,0,234.11,746.8Z" transform="translate(-128.07 -56.81)"/><path class="cls-2" d="M366,713a33.79,33.79,0,0,1,0,67.57H352.49V712.92H366Zm29.11,33.78A29.08,29.08,0,0,0,366,717.69h-8.84v58.23H366A29.09,29.09,0,0,0,395.11,746.8Z" transform="translate(-128.07 -56.81)"/><path class="cls-2" d="M602,780.69H565.93V713h4.67v62.9h31.3Z" transform="translate(-128.07 -56.81)"/><path class="cls-2" d="M708.88,713l-23.45,42.33v25.24h-4.67V756.14L657.3,712.92h5.37L683,750.18l20.67-37.26Z" transform="translate(-128.07 -56.81)"/><line class="cls-3" x1="339.93" y1="704.88" x2="337.93" y2="708.88"/><circle cx="247.16" cy="341.19" r="247.16"/><circle class="cls-4" cx="336.7" cy="249.66" r="247.16"/></svg>